# xmcd
#
# Track frame offsets:
#	150
#	16518
#	31513
#	43593
#	62813
#	80088
#	84763
#	101225
#	120420
#	135080
#	154373
#	161578
#	175423
#
# Disc length: 2787 seconds
#
# Revision: 1
# Processed by: cddbd v1.5.1PL0 Copyright (c) Steve Scherf et al.
# Submitted via: CDex 1.50Beta5
#
DISCID=910ae10d
DTITLE=SOURCE - Desert Island
DYEAR=1900
DGENRE=Rock
TTITLE0=PROUD OF YOU
TTITLE1=BORDERLINE
TTITLE2=SHOOTING STAR
TTITLE3=SANCTUARY
TTITLE4=FOR MR.FELLOW
TTITLE5=JAM SESSION 1
TTITLE6=I'M HERE.....
TTITLE7=道しるべ
TTITLE8=7DAYS
TTITLE9=GLEAMY
TTITLE10=JAM SESSION 2
TTITLE11=POTENTIAL
TTITLE12=素のまま
EXTD=
EXTT0=
EXTT1=
EXTT2=
EXTT3=
EXTT4=
EXTT5=
EXTT6=
EXTT7=
EXTT8=
EXTT9=
EXTT10=
EXTT11=
EXTT12=
PLAYORDER=
